<svg width="1200" height="760" viewBox="0 0 1200 760" fill="none" xmlns="http://www.w3.org/2000/svg">
  <rect width="1200" height="760" rx="48" fill="#0A0B0F"/>
  <rect x="32" y="32" width="1136" height="80" rx="20" fill="url(#paint0_linear)" fill-opacity="0.2"/>
  <circle cx="96" cy="72" r="12" fill="#00E1A4" fill-opacity="0.6"/>
  <circle cx="136" cy="72" r="12" fill="#00B7FF" fill-opacity="0.6"/>
  <circle cx="176" cy="72" r="12" fill="#F8F9FA" fill-opacity="0.6"/>
  <rect x="96" y="160" width="360" height="220" rx="28" fill="#11131A" stroke="#1F222A" stroke-width="2"/>
  <rect x="496" y="160" width="608" height="220" rx="28" fill="#11131A" stroke="#1F222A" stroke-width="2"/>
  <rect x="96" y="420" width="1008" height="220" rx="28" fill="#11131A" stroke="#1F222A" stroke-width="2"/>
  <rect x="96" y="676" width="240" height="40" rx="12" fill="#0A0B0F" stroke="#00E1A4" stroke-opacity="0.4"/>
  <rect x="360" y="676" width="240" height="40" rx="12" fill="#00E1A4" fill-opacity="0.2"/>
  <rect x="624" y="676" width="240" height="40" rx="12" fill="#00B7FF" fill-opacity="0.15"/>
  <rect x="888" y="676" width="216" height="40" rx="12" fill="#11131A" stroke="#1F222A" stroke-width="2"/>
  <g filter="url(#filter0_f)">
    <ellipse cx="270" cy="310" rx="140" ry="70" fill="#00E1A4" fill-opacity="0.35"/>
  </g>
  <g filter="url(#filter1_f)">
    <ellipse cx="840" cy="290" rx="200" ry="90" fill="#00B7FF" fill-opacity="0.25"/>
  </g>
  <g filter="url(#filter2_f)">
    <ellipse cx="560" cy="560" rx="260" ry="100" fill="#00E1A4" fill-opacity="0.18"/>
  </g>
  <defs>
    <filter id="filter0_f" x="30" y="140" width="480" height="340" filterUnits="userSpaceOnUse" color-interpolation-filters="sRGB">
      <feFlood flood-opacity="0" result="BackgroundImageFix"/>
      <feBlend mode="normal" in="SourceGraphic" in2="BackgroundImageFix" result="shape"/>
      <feGaussianBlur stdDeviation="50" result="effect1_foregroundBlur"/>
    </filter>
    <filter id="filter1_f" x="500" y="120" width="680" height="340" filterUnits="userSpaceOnUse" color-interpolation-filters="sRGB">
      <feFlood flood-opacity="0" result="BackgroundImageFix"/>
      <feBlend mode="normal" in="SourceGraphic" in2="BackgroundImageFix" result="shape"/>
      <feGaussianBlur stdDeviation="70" result="effect1_foregroundBlur"/>
    </filter>
    <filter id="filter2_f" x="200" y="380" width="720" height="360" filterUnits="userSpaceOnUse" color-interpolation-filters="sRGB">
      <feFlood flood-opacity="0" result="BackgroundImageFix"/>
      <feBlend mode="normal" in="SourceGraphic" in2="BackgroundImageFix" result="shape"/>
      <feGaussianBlur stdDeviation="80" result="effect1_foregroundBlur"/>
    </filter>
    <linearGradient id="paint0_linear" x1="32" y1="32" x2="312" y2="152" gradientUnits="userSpaceOnUse">
      <stop stop-color="#00E1A4"/>
      <stop offset="1" stop-color="#00B7FF"/>
    </linearGradient>
  </defs>
</svg>
